#!OML:ASF H:\IndianDance\Patient Classification 1\Patient 1\Session 1\dancer.ASF
:FULLY-SPECIFIED
:DEGREES
3790
root 1.73803 14.241 -7.27172 1262.87 -0.710338 -171.765
lowerback 6.16294 2.54183 4.14815
upperback -5.097 3.78441 2.16001
thorax -8.7303 1.56706 -0.529479
lowerneck -18.582 -0.177815 1.05297
upperneck 26.9983 -0.904549 -2.27017
head 11.935 -0.98044 -1.25077
rclavicle -2.65874e-015 -1.51076e-014
rhumerus 1.49001 16.9585 -19.3974
rradius 44.9123
rwrist 19.0926
rhand -30.6389 16.2055
rfingers 7.12502
rthumb -3.93441 -13.7379
lclavicle -2.65874e-015 -1.51076e-014
lhumerus -5.67151 -19.3735 9.69535
lradius 41.573
lwrist -14.6172
lhand -48.635 2.8032
lfingers 7.12502
lthumb -21.2785 -328.345
rfemur -37.7542 -19.8967 30.0685
rtibia 63.071
rfoot -22.9247 -2.11065
rtoes 2.6366
lfemur -27.464 24.3792 -17.7842
ltibia 81.5364
lfoot -20.2876 5.27486
ltoes -18.9722
3791
root 1.77934 14.2228 -7.23951 1262.94 -1.29498 -171.965
lowerback 6.04121 2.71321 4.12193
upperback -5.07762 4.00413 2.12722
thorax -8.62894 1.67879 -0.571885
lowerneck -18.8628 0.263594 1.27902
upperneck 27.5049 -0.436038 -2.04327
head 12.2018 -0.727812 -1.14423
rclavicle 7.60351e-015 2.98177e-014
rhumerus 0.522598 17.2186 -19.753
rradius 48.3759
rwrist 18.4418
rhand -35.4779 20.1792
rfingers 7.12502
rthumb -8.60602 -9.6254
lclavicle 7.60351e-015 2.98177e-014
lhumerus -5.28715 -20.2645 10.2507
lradius 44.9533
lwrist -14.9259
lhand -53.1575 -2.0654
lfingers 7.12502
lthumb -25.6166 -333.768
rfemur -38.4478 -20.3216 30.1276
rtibia 63.7628
rfoot -22.7108 -2.13639
rtoes 2.59414
lfemur -26.5347 23.4355 -18.7801
ltibia 77.8542
lfoot -20.9625 6.86114
ltoes -18.4616
3792
root 1.81821 14.2047 -7.20471 1263.05 -1.88354 -172.197
lowerback 5.92338 2.9043 4.08291
upperback -5.06559 4.2492 2.0859
thorax -8.53723 1.80323 -0.618682
lowerneck -19.1301 0.680121 1.50153
upperneck 27.9803 -0.00267209 -1.81106
head 12.4559 -0.488901 -1.03582
rclavicle -4.23163e-014 -1.13307e-014
rhumerus -0.438151 17.424 -20.1548
rradius 52.0916
rwrist 17.8627
rhand -39.5091 24.3385
rfingers 7.12502
rthumb -12.4946 -5.26801
lclavicle -4.23163e-014 -1.13307e-014
lhumerus -4.82052 -21.2429 10.8163
lradius 48.7173
lwrist -14.875
lhand -56.7231 -8.05447
lfingers 7.12502
lthumb -29.027 -340.295
rfemur -39.2698 -20.8407 30.1642
rtibia 64.5657
rfoot -22.3782 -2.02559
rtoes 2.49342
lfemur -25.6053 22.5979 -19.7413
ltibia 74.5484
lfoot -22.0531 8.51382
ltoes -17.7725
3793
root 1.85411 14.1884 -7.16737 1263.18 -2.4723 -172.464
lowerback 5.80663 3.1132 4.03589
upperback -5.06387 4.51709 2.03127
thorax -8.45606 1.93862 -0.677075
lowerneck -19.3765 1.07094 1.70708
upperneck 28.4232 0.392572 -1.55472
head 12.6946 -0.263937 -0.916933
rclavicle 4.85283e-014 3.63776e-014
rhumerus -1.34739 17.5978 -20.6152
rradius 55.9838
rwrist 17.428
rhand -42.8126 28.5633
rfingers 7.12502
rthumb -15.6779 -0.821559
lclavicle 4.85283e-014 3.63776e-014
lhumerus -4.25129 -22.2698 11.3971
lradius 52.8051
lwrist -14.6175
lhand -59.2842 -14.8986
lfingers 7.12502
lthumb -31.4702 -347.588
rfemur -40.2293 -21.4619 30.1737
rtibia 65.482
rfoot -21.8891 -1.76111
rtoes 2.24923
lfemur -24.7188 21.8278 -20.6863
ltibia 71.6586
lfoot -23.5783 10.1727
ltoes -16.8194
3794
root 1.88671 14.1747 -7.12763 1263.36 -3.06073 -172.77
lowerback 5.68704 3.33633 3.97194
upperback -5.075 4.8019 1.96479
thorax -8.38681 2.08251 -0.739598
lowerneck -19.5708 1.4371 1.88879
upperneck 28.8122 0.751856 -1.26635
head 12.9017 -0.0513638 -0.783091
rclavicle -5.90142e-014 -1.89839e-014
rhumerus -2.15474 17.7792 -21.1434
rradius 59.9826
rwrist 17.1331
rhand -45.4547 32.6376
rfingers 7.12502
rthumb -18.2212 3.47102
lclavicle -5.90142e-014 -1.89839e-014
lhumerus -3.56626 -23.3234 12.0058
lradius 57.1442
lwrist -14.2889
lhand -60.9908 -21.9999
lfingers 7.12502
lthumb -33.0946 -355.02
rfemur -41.3358 -22.1811 30.1458
rtibia 66.5188
rfoot -21.2166 -1.29652
rtoes 2.04957
lfemur -23.9142 21.0805 -21.6253
ltibia 69.1765
lfoot -25.4857 11.7024
ltoes -15.3588
3795
root 1.91598 14.163 -7.08531 1263.57 -3.65176 -173.116
lowerback 5.57348 3.56684 3.8886
upperback -5.10395 5.09481 1.88651
thorax -8.34066 2.23026 -0.804544
lowerneck -19.713 1.78118 2.04072
upperneck 29.1629 1.07541 -0.934883
head 13.0825 0.148992 -0.629937
rclavicle -1.71514e-014 -1.59028e-015
rhumerus -2.81218 18.0046 -21.7549
rradius 63.988
rwrist 16.9856
rhand -47.5425 36.587
rfingers 7.12502
rthumb -20.2287 7.62035
lclavicle -1.71514e-014 -1.59028e-015
lhumerus -2.75568 -24.3804 12.6555
lradius 61.6184
lwrist -14.0645
lhand -62.073 -28.593
lfingers 7.12502
lthumb -34.123 -361.837
rfemur -42.5987 -22.9956 30.0763
rtibia 67.6855
rfoot -20.3395 -0.634784
rtoes 1.86207
lfemur -23.2237 20.331 -22.5618
ltibia 67.0571
lfoot -27.6441 13.032
ltoes -13.1873
3796
root 1.94241 14.1517 -7.04049 1263.81 -4.24332 -173.498
lowerback 5.46413 3.7981 3.79538
upperback -5.14404 5.38755 1.79328
thorax -8.30849 2.37761 -0.87933
lowerneck -19.7988 2.10723 2.18739
upperneck 29.4756 1.36557 -0.577028
head 13.2356 0.338399 -0.468449
rclavicle 5.93869e-015 -9.93923e-016
rhumerus -3.27567 18.2878 -22.4814
rradius 67.8925
rwrist 16.9909
rhand -49.1658 40.2646
rfingers 7.12502
rthumb -21.7882 11.471
lclavicle 5.93869e-015 -9.93923e-016
lhumerus -1.80584 -25.4211 13.3488
lradius 66.1479
lwrist -14.0278
lhand -62.7891 -34.0901
lfingers 7.12502
lthumb -34.8028 -367.488
rfemur -44.0189 -23.8844 29.9655
rtibia 68.9897
rfoot -19.2465 0.214218
rtoes 1.80415
lfemur -22.661 19.5781 -23.486
ltibia 65.2319
lfoot -29.825 14.1738
ltoes -10.4765
